<svg width="123" height="147" viewBox="0 0 123 147" fill="none" xmlns="http://www.w3.org/2000/svg">
    <g filter="url(#filter0_d_896_3911)">
    <path d="M10.4363 57.4547L23.4633 66.8301L23.3992 56.0222L10.4363 57.4547Z" fill="#BF9017"/>
    <path d="M118.999 32.6671L118.999 125.551C118.999 129.004 116.191 131.806 112.729 131.806H29.7457C26.2838 131.806 23.4758 129.004 23.4758 125.551L23.4758 6.25488C23.4758 2.80147 26.2838 0.000366211 29.7457 0.000366211L83.9696 0.000366211L118.999 32.6671Z" fill="white"/>
    <path d="M71.276 57.736H11.6028C10.1668 57.736 9 56.5721 9 55.1396L9 28.8297C9 27.3972 10.1668 26.2333 11.6028 26.2333L71.276 26.2333C72.7121 26.2333 73.8789 27.3972 73.8789 28.8297V55.1396C73.8789 56.5721 72.7121 57.736 71.276 57.736Z" fill="#D8A521"/>
    <path d="M21.8605 51.8907C20.5654 51.8907 19.4756 51.6349 18.5909 51.1105C17.7062 50.5861 16.9753 49.8187 16.3855 48.7826L18.6293 47.1327C19.0012 47.7978 19.4371 48.2966 19.9243 48.6036C20.4116 48.9106 20.9373 49.064 21.4886 49.064C22.3477 49.064 22.9888 48.8082 23.4247 48.2838C23.8607 47.7594 24.0658 46.8513 24.0658 45.5467V33.2679H27.3226V45.8281C27.3226 46.6722 27.22 47.4524 27.0149 48.1943C26.8097 48.9361 26.4763 49.5757 26.0276 50.1256C25.5788 50.6756 25.0146 51.1105 24.3223 51.4303C23.6299 51.7244 22.8093 51.8907 21.8605 51.8907Z" fill="white"/>
    <path d="M31.8877 51.545L31.8877 33.2548H37.6576C38.6705 33.2548 39.6065 33.3443 40.4784 33.5362C41.3503 33.728 42.0939 34.035 42.735 34.4826C43.3761 34.9303 43.8634 35.5187 44.2224 36.2349C44.5814 36.9512 44.7609 37.8465 44.7609 38.9081C44.7609 39.9186 44.5814 40.7883 44.2224 41.5429C43.8634 42.2848 43.3761 42.9115 42.7479 43.3976C42.1196 43.8964 41.3887 44.2545 40.5297 44.4847C39.6834 44.715 38.7602 44.8301 37.773 44.8301H35.1316V51.545H31.8877ZM35.1445 42.2336H37.5293C40.2219 42.2336 41.5682 41.1209 41.5682 38.9081C41.5682 37.757 41.2221 36.9512 40.5168 36.5163C39.8116 36.0814 38.7859 35.864 37.4139 35.864H35.1445V42.2336V42.2336Z" fill="white"/>
    <path d="M55.8899 51.8901C54.659 51.8901 53.505 51.6854 52.4536 51.2761C51.4022 50.8668 50.479 50.2657 49.7097 49.4599C48.9276 48.6541 48.325 47.6692 47.9018 46.4925C47.4659 45.3158 47.2607 43.9728 47.2607 42.4635C47.2607 40.967 47.4787 39.6368 47.9275 38.4473C48.3763 37.2578 48.9917 36.2602 49.761 35.4416C50.5303 34.623 51.4535 33.9963 52.5049 33.5614C53.5563 33.1265 54.6975 32.9219 55.9155 32.9219C57.2234 32.9219 58.3261 33.1649 59.2364 33.6381C60.1468 34.1114 60.8904 34.6486 61.4674 35.2497L59.7236 37.3474C59.2621 36.8997 58.7364 36.516 58.1722 36.209C57.608 35.902 56.89 35.7486 56.0309 35.7486C55.2103 35.7486 54.4667 35.902 53.7999 36.209C53.1332 36.516 52.569 36.9509 52.0946 37.5264C51.6202 38.0892 51.2484 38.7927 50.9919 39.6113C50.7355 40.4298 50.5944 41.3508 50.5944 42.374C50.5944 44.4588 51.0689 46.096 52.0049 47.2855C52.9537 48.475 54.3513 49.0634 56.1976 49.0634C56.7233 49.0634 57.2106 48.9994 57.685 48.8587C58.1466 48.718 58.5312 48.5134 58.8389 48.2576V44.3181H55.3642V41.6577H61.7623V49.7157C61.1469 50.3296 60.3263 50.854 59.3133 51.2633C58.2876 51.6726 57.1464 51.8901 55.8899 51.8901Z" fill="white"/>
    <path d="M119 32.6669V33.639H87.7916C85.4067 33.639 83.4834 31.7076 83.4834 29.3286V0.000183105L83.9706 0.000183105L119 32.6669Z" fill="#E6E7E8"/>
    <path d="M101.33 73.085H41.1316V67.9048H101.33H101.343V73.085H101.33Z" fill="#E6E7E8"/>
    <path d="M101.33 85.0184H41.1316V79.8383H101.33H101.343V85.0184H101.33Z" fill="#E6E7E8"/>
    <path d="M101.331 96.9386H41.1318V91.7712H101.331H101.344V96.9386H101.331Z" fill="#E6E7E8"/>
    <path d="M101.33 108.872H41.1316V103.692H101.33H101.343V108.872H101.33Z" fill="#E6E7E8"/>
    </g>
    <defs>
    <filter id="filter0_d_896_3911" x="0.449217" y="0.000183105" width="122.215" height="146.952" filterUnits="userSpaceOnUse" color-interpolation-filters="sRGB">
    <feFlood flood-opacity="0" result="BackgroundImageFix"/>
    <feColorMatrix in="SourceAlpha" type="matrix" values="0 0 0 0 0 0 0 0 0 0 0 0 0 0 0 0 0 0 127 0" result="hardAlpha"/>
    <feOffset dx="-2.44308" dy="9.0394"/>
    <feGaussianBlur stdDeviation="3.05385"/>
    <feComposite in2="hardAlpha" operator="out"/>
    <feColorMatrix type="matrix" values="0 0 0 0 0 0 0 0 0 0 0 0 0 0 0 0 0 0 0.4 0"/>
    <feBlend mode="normal" in2="BackgroundImageFix" result="effect1_dropShadow_896_3911"/>
    <feBlend mode="normal" in="SourceGraphic" in2="effect1_dropShadow_896_3911" result="shape"/>
    </filter>
    </defs>
    </svg>
