<svg width="123" height="147" viewBox="0 0 123 147" fill="none" xmlns="http://www.w3.org/2000/svg">
    <g filter="url(#filter0_d_896_3881)">
    <path d="M8.43701 57.203L21.4641 66.5373L21.3999 55.7768L8.43701 57.203Z" fill="#BA1E2A"/>
    <path d="M117 32.5237V125C117 128.438 114.192 131.227 110.73 131.227H27.747C24.285 131.227 21.4771 128.438 21.4771 125L21.4771 6.22743C21.4771 2.78918 24.285 0.000366211 27.747 0.000366211L81.9707 0.000366211L117 32.5237Z" fill="white"/>
    <path d="M69.2759 57.4831H9.60284C8.16679 57.4831 7 56.3243 7 54.8981L7 28.7036C7 27.2774 8.16679 26.1186 9.60284 26.1186L69.2759 26.1186C70.712 26.1186 71.8787 27.2774 71.8787 28.7036V54.8981C71.8787 56.3243 70.712 57.4831 69.2759 57.4831Z" fill="#ED1B24"/>
    <path d="M17.8608 51.319V33.1089H23.6307C24.6436 33.1089 25.5796 33.1981 26.4515 33.3891C27.3234 33.5801 28.0671 33.8857 28.7082 34.3314C29.3493 34.7771 29.8365 35.3629 30.1955 36.076C30.5545 36.7892 30.734 37.6806 30.734 38.7375C30.734 39.7435 30.5545 40.6094 30.1955 41.3608C29.8365 42.0994 29.3493 42.7233 28.721 43.2072C28.0927 43.7039 27.3619 44.0604 26.5028 44.2897C25.6565 44.5189 24.7334 44.6335 23.7461 44.6335H21.1048V51.319H17.8608ZM21.1176 42.0484H23.5025C26.1951 42.0484 27.5414 40.9405 27.5414 38.7375C27.5414 37.5914 27.1952 36.7892 26.49 36.3562C25.7848 35.9232 24.759 35.7067 23.3871 35.7067H21.1176V42.0484Z" fill="white"/>
    <path d="M34.1833 51.319V33.1089H39.0941C41.9021 33.1089 44.0818 33.8603 45.6589 35.3629C47.236 36.8656 48.0182 39.1195 48.0182 42.1248C48.0182 43.6275 47.813 44.9518 47.4155 46.1107C47.0181 47.2567 46.4283 48.2246 45.6718 48.9886C44.9153 49.7654 44.0049 50.3384 42.9279 50.7332C41.8508 51.128 40.6328 51.319 39.2736 51.319H34.1833V51.319ZM37.4273 48.7085H38.8633C40.7353 48.7085 42.1714 48.1736 43.1715 47.1039C44.1716 46.0343 44.6716 44.3788 44.6716 42.1376C44.6716 39.9091 44.1716 38.2918 43.1587 37.2603C42.1457 36.2416 40.7225 35.7322 38.8633 35.7322H37.4273V48.7085Z" fill="white"/>
    <path d="M51.698 51.3195V33.1094H62.7761V35.8346H54.9548V40.992H61.6221V43.7171H54.9548V51.3195H51.698Z" fill="white"/>
    <path d="M117 32.5239V33.4917H85.7915C83.4067 33.4917 81.4834 31.5688 81.4834 29.2002V0.000488281L81.9706 0.000488281L117 32.5239Z" fill="#E6E7E8"/>
    <path d="M99.3323 72.7644H39.1335V67.607H99.3323H99.3451V72.7644H99.3323Z" fill="#E6E7E8"/>
    <path d="M99.3323 84.6458H39.1335V79.4884H99.3323H99.3451V84.6458H99.3323Z" fill="#E6E7E8"/>
    <path d="M99.3328 96.5138H39.134V91.3692H99.3328H99.3456V96.5138H99.3328Z" fill="#E6E7E8"/>
    <path d="M99.3328 108.395H39.134V103.238H99.3328H99.3456V108.395H99.3328Z" fill="#E6E7E8"/>
    </g>
    <defs>
    <filter id="filter0_d_896_3881" x="0.64799" y="0.000366211" width="122.215" height="146.374" filterUnits="userSpaceOnUse" color-interpolation-filters="sRGB">
    <feFlood flood-opacity="0" result="BackgroundImageFix"/>
    <feColorMatrix in="SourceAlpha" type="matrix" values="0 0 0 0 0 0 0 0 0 0 0 0 0 0 0 0 0 0 127 0" result="hardAlpha"/>
    <feOffset dx="-0.244308" dy="9.0394"/>
    <feGaussianBlur stdDeviation="3.05385"/>
    <feComposite in2="hardAlpha" operator="out"/>
    <feColorMatrix type="matrix" values="0 0 0 0 0 0 0 0 0 0 0 0 0 0 0 0 0 0 0.4 0"/>
    <feBlend mode="normal" in2="BackgroundImageFix" result="effect1_dropShadow_896_3881"/>
    <feBlend mode="normal" in="SourceGraphic" in2="effect1_dropShadow_896_3881" result="shape"/>
    </filter>
    </defs>
    </svg>
