<svg width="124" height="146" viewBox="0 0 124 146" fill="none" xmlns="http://www.w3.org/2000/svg">
    <g filter="url(#filter0_d_896_3896)">
    <path d="M4.43579 57.7094L17.4629 67.1263L17.3988 56.2706L4.43579 57.7094Z" fill="#005BB3"/>
    <path d="M113 32.8112V126.106C113 129.575 110.192 132.389 106.73 132.389H23.7462C20.2843 132.389 17.4763 129.575 17.4763 126.106V6.28208C17.4763 2.81338 20.2843 -0.00012207 23.7462 -0.00012207H77.9702L113 32.8112Z" fill="white"/>
    <path d="M65.2756 57.9924H5.60236C4.16631 57.9924 2.99951 56.8233 2.99951 55.3844V28.9581C2.99951 27.5192 4.16631 26.3502 5.60236 26.3502H65.2756C66.7117 26.3502 67.8785 27.5192 67.8785 28.9581V55.3844C67.8785 56.8233 66.7117 57.9924 65.2756 57.9924Z" fill="#0283FF"/>
    <path d="M20.1043 51.7741V36.1649H14.8088V33.4028H28.6565V36.1521H23.3611V51.7741H20.1043Z" fill="white"/>
    <path d="M29.1953 51.7748L34.4138 42.3065L29.5287 33.4035H33.1445L35.1575 37.476C35.3883 37.9128 35.6063 38.3496 35.8114 38.7993C36.0294 39.2489 36.273 39.7499 36.5551 40.2895H36.6705C36.9013 39.7499 37.1064 39.2489 37.2988 38.7993C37.4911 38.3496 37.6963 37.9128 37.9014 37.476L39.8375 33.4035H43.2866L38.4015 42.4478L43.62 51.7748H40.0042L37.7604 47.4453C37.5167 46.9571 37.2731 46.4818 37.0423 45.9936C36.8115 45.5183 36.5551 44.9915 36.273 44.4391H36.1576C35.914 45.0044 35.6832 45.5183 35.4652 45.9936C35.2473 46.4689 35.0293 46.9571 34.8113 47.4453L32.6444 51.7748H29.1953Z" fill="white"/>
    <path d="M49.4666 51.7741V36.1649H44.1711V33.4028H58.0188V36.1521H52.7234V51.7741H49.4666Z" fill="white"/>
    <path d="M112.999 32.8117V33.7881H81.7906C79.4057 33.7881 77.4824 31.8482 77.4824 29.4586V0.000366211H77.9697L112.999 32.8117Z" fill="#E6E7E8"/>
    <path d="M95.3308 73.4084H35.1318V68.2053H95.3308H95.3436V73.4084H95.3308Z" fill="#E6E7E8"/>
    <path d="M95.3308 85.3948H35.1318V80.1917H95.3308H95.3436V85.3948H95.3308Z" fill="#E6E7E8"/>
    <path d="M95.3311 97.3681H35.1321V92.1779H95.3311H95.3439V97.3681H95.3311Z" fill="#E6E7E8"/>
    <path d="M95.3303 109.354H35.1313V104.151H95.3303H95.3431V109.354H95.3303Z" fill="#E6E7E8"/>
    </g>
    <defs>
    <filter id="filter0_d_896_3896" x="0.800739" y="-0.00012207" width="122.216" height="145.826" filterUnits="userSpaceOnUse" color-interpolation-filters="sRGB">
    <feFlood flood-opacity="0" result="BackgroundImageFix"/>
    <feColorMatrix in="SourceAlpha" type="matrix" values="0 0 0 0 0 0 0 0 0 0 0 0 0 0 0 0 0 0 127 0" result="hardAlpha"/>
    <feOffset dx="3.90893" dy="7.32924"/>
    <feGaussianBlur stdDeviation="3.05385"/>
    <feComposite in2="hardAlpha" operator="out"/>
    <feColorMatrix type="matrix" values="0 0 0 0 0 0 0 0 0 0 0 0 0 0 0 0 0 0 0.4 0"/>
    <feBlend mode="normal" in2="BackgroundImageFix" result="effect1_dropShadow_896_3896"/>
    <feBlend mode="normal" in="SourceGraphic" in2="effect1_dropShadow_896_3896" result="shape"/>
    </filter>
    </defs>
    </svg>
